<?xml version="1.0" standalone="no"?><!DOCTYPE svg PUBLIC "-//W3C//DTD SVG 1.1//EN" "http://www.w3.org/Graphics/SVG/1.1/DTD/svg11.dtd"><svg class="icon" width="200px" height="200.00px" viewBox="0 0 1024 1024" version="1.1" xmlns="http://www.w3.org/2000/svg"><path fill="#5F5D5D" d="M943.975331 322.094545l-92.485818-92.392727-145.501091 134.306909v493.614546H977.511331V197.12l-33.536 124.974545z m-484.445091 170.565819l-83.246545-53.620364V857.6h271.546181V417.745455l-70.050909 64.535272a96.512 96.512 0 0 1-65.675636 25.762909 97.885091 97.885091 0 0 1-52.596364-15.36z m-141.405091-90.996364l-68.654545-44.218182L46.60224 533.992727V857.6h271.522909V401.687273zM46.60224 924.974545h930.909091v96.93091H46.60224v-96.93091z m64.372364-513.792l133.282909-116.596363 246.807272 158.859636a38.865455 38.865455 0 0 0 47.336728-4.189091L853.141876 158.603636l60.695273 60.695273L972.624058 0l-219.298909 58.763636 44.962909 44.986182-290.443636 268.125091L261.525876 213.527273a39.005091 39.005091 0 0 0-46.545454 3.490909l-155.229091 135.726545a38.818909 38.818909 0 1 0 51.2 58.414546z" /></svg>